<?xml version="1.0" encoding="utf-8"?>
<svg xmlns="http://www.w3.org/2000/svg" viewBox="0 0 1200 100" preserveAspectRatio="xMidYMid meet">
  <rect width="1200" height="100" fill="#e8e7e3"/>
  <g transform="translate(21,-4) scale(0.20)" fill="#1a1a1a">
    <path d="M232.21,180.45h31.91V303.1c0,40.01-24.06,60.67-63.29,60.67c-33.47,0-54.14-17.78-58.06-44.72c-0.78-4.45-1.05-8.63-1.31-13.34l30.6-2.09c0.26,3.4,0.52,7.06,1.05,10.46c1.83,13.08,10.98,23.01,28.77,23.01c20.4,0,30.34-10.98,30.34-32.43V180.45z"/>
    <path d="M380.74,363.51c-48.9,0-76.1-22.75-76.1-74.01v-0.52V180.45h31.91v105.92v0.52c0,34.52,12.03,49.95,43.93,49.95c32.17,0,44.2-15.43,44.2-49.95V180.45h31.91V289.5C456.58,340.24,428.6,363.51,380.74,363.51z"/>
    <path d="M531.1,360.9h-31.9V180.45h33.47l74.79,111.93c4.18,6.54,8.89,13.86,12.29,20.92V180.45h31.91V360.9h-33.21l-74.8-111.15c-4.44-6.27-8.89-13.86-12.55-20.66V360.9z"/>
    <path d="M728.54,360.9h-31.9V180.45h31.9V360.9z"/>
    <path d="M805.42,360.9h-31.9V180.45h83.16c39.75,0,63.55,17.26,63.55,55.96c0,40.54-31.38,57.27-69.04,57.27h-45.77V360.9z M805.42,266.23h46.81c22.23,0,34.78-8.11,34.78-29.29c0-21.18-11.77-29.03-32.43-29.03h-49.17V266.23z"/>
    <path d="M1084.71,281.13h-95.46v52.04h106.44v27.72H957.35V180.45h134.16v27.46H989.25v45.77h95.46V281.13z"/>
    <path d="M1166.55,290.03v70.87h-31.9V180.45h86.82c37.14,0,62.24,14.65,62.24,51.78c0,33.21-20.66,50.99-51.78,55.44l56.49,73.23h-38.71l-52.56-70.87H1166.55z M1166.55,262.57h47.07c22.49,0,36.87-6.8,36.87-28.5c0-19.88-13.08-26.15-32.43-26.15h-51.52V262.57z"/>
    <path d="M1308.74,200.42c0-9.82,7.13-17.34,17.3-17.34c10.11,0,17.25,7.52,17.25,17.34c0,9.82-7.13,17.49-17.25,17.49C1315.88,217.91,1308.74,210.24,1308.74,200.42z M1338.89,200.42c0-7.67-4.89-13.39-12.85-13.39c-8.01,0-12.85,5.71-12.85,13.39c0,7.72,4.84,13.53,12.85,13.53C1334,213.96,1338.89,208.14,1338.89,200.42z M1325.06,203.21c1.51,0,2.54,0.39,3.18,2.15l1.71,4.64h4.45l-1.51-4.1c-0.59-1.86-1.71-2.93-3.37-3.42c2.83-0.44,5.08-2.34,5.08-5.57c0-3.76-2.44-5.96-6.89-5.96h-9.04V210h4.15v-6.79H1325.06z M1322.81,194.51h4.45c2.05,0,3.13,0.73,3.13,2.59c0,1.9-1.22,2.59-3.32,2.59h-4.25V194.51z"/>
  </g>
  <text x="1150" y="58" text-anchor="end" font-family="'Helvetica Neue','Helvetica','Inter','Arial',sans-serif" font-weight="400" font-size="14" letter-spacing="2" fill="#5a5a5a">LIGHTING · POWER SOLUTIONS · SYSTEMS</text>
</svg>
